<?xml version="1.0" encoding="iso-8859-1"?>
<!-- Generator: Adobe Illustrator 19.0.0, SVG Export Plug-In . SVG Version: 6.00 Build 0)  -->
<svg xmlns="http://www.w3.org/2000/svg" xmlns:xlink="http://www.w3.org/1999/xlink" version="1.1" id="Layer_1" x="0px" y="0px" viewBox="0 0 503.607 503.607" style="enable-background:new 0 0 503.607 503.607;" xml:space="preserve" width="512px" height="512px">
<g>
	<g>
		<path d="M477.553,180.459h-59.88C402.765,84.035,344.761,4.197,251.799,4.197S100.833,84.035,85.925,180.459h-59.88    C11.656,180.459,0,192.115,0,206.504V339.07c0,11.125,6.971,20.611,16.783,24.345v109.95c0,14.391,11.658,26.045,26.053,26.045    h417.926c14.395,0,26.053-11.654,26.053-26.045v-109.95c9.815-3.733,16.791-13.22,16.791-24.345V206.504    C503.607,192.115,491.942,180.459,477.553,180.459z M251.799,20.984c81.785,0,134.463,71.425,148.883,159.475h-17.379    c-4.133-21.154-10.859-43.397-20.89-64.307C337.646,64.544,300.172,37.77,251.799,37.77c-44.775,0-78.448,23.186-102.075,62.674    c-14.734,24.625-24.116,52.774-29.43,80.014h-17.379C117.336,92.409,170.014,20.984,251.799,20.984z M366.17,180.459H137.424    c5.081-24.5,13.697-49.654,26.706-71.395c20.829-34.812,49.431-54.507,87.67-54.507c41.5,0,73.358,22.761,95.479,68.857    C356.113,141.829,362.244,161.557,366.17,180.459z M470.029,473.365c0,5.118-4.141,9.258-9.266,9.258H42.836    c-5.125,0-9.266-4.14-9.266-9.258v-108.25h142.688v10.693c0,6.224,3.93,11.512,9.439,13.563c1.575,0.587,3.273,0.924,5.052,0.924    h0.004h35.865v25.18c0,1.657,0.49,3.277,1.41,4.656l16.787,25.18c3.322,4.983,10.645,4.983,13.968,0l16.787-25.18    c0.919-1.379,1.41-2.999,1.41-4.656v-25.18h35.865h0.004c7.999,0,14.495-6.484,14.495-14.487v-10.693h142.684V473.365z     M310.557,356.638c0,0.028-0.004,0.055-0.004,0.083v16.787h-41.967h-33.574h-41.963v-16.787v-16.787h117.508V356.638z     M243.406,390.295h16.787v22.639l-8.393,12.59l-8.393-12.59V390.295z M486.82,339.07c0,5.115-4.146,9.258-9.266,9.258H327.344    v-10.693c0-8.003-6.496-14.487-14.495-14.487H190.749c-8.001,0-14.487,6.486-14.487,14.487v10.693H26.045    c-5.118,0-9.258-4.14-9.258-9.258V206.504c0-5.118,4.14-9.258,9.258-9.258h67.152h34.094h249.017h34.094h67.152    c5.12,0,9.266,4.143,9.266,9.258V339.07z" fill="#333333"/>
	</g>
</g>
<g>
</g>
<g>
</g>
<g>
</g>
<g>
</g>
<g>
</g>
<g>
</g>
<g>
</g>
<g>
</g>
<g>
</g>
<g>
</g>
<g>
</g>
<g>
</g>
<g>
</g>
<g>
</g>
<g>
</g>
</svg>
