<?xml version="1.0" encoding="iso-8859-1"?>
<!-- Generator: Adobe Illustrator 19.0.0, SVG Export Plug-In . SVG Version: 6.00 Build 0)  -->
<svg xmlns="http://www.w3.org/2000/svg" xmlns:xlink="http://www.w3.org/1999/xlink" version="1.1" id="Layer_1" x="0px" y="0px" viewBox="0 0 512.006 512.006" style="enable-background:new 0 0 512.006 512.006;" xml:space="preserve" width="512px" height="512px">
<g transform="translate(1 1)">
	<g>
		<g>
			<circle cx="255.003" cy="169.668" r="8.533" fill="#333333"/>
			<circle cx="255.003" cy="203.801" r="8.533" fill="#333333"/>
			<path d="M509.182,207.062L416.687,89.341c-3.135-14.587-26.224-30.186-80.363-46.687l-23.106-23.106l-2.078-4.151     c-5.016-10.044-15.293-16.394-26.531-16.394h-59.196c-11.247,0-21.526,6.36-26.546,16.424l-2.063,4.132l-23.096,23.096     C118.345,59.528,95.453,75.459,93.068,89.66L0.824,207.062c-3.006,3.826-2.21,9.388,1.75,12.216l59.733,42.667     c2.619,1.871,6.068,2.109,8.919,0.615L118.5,237.8l-0.004,264.668c0,4.713,3.821,8.533,8.533,8.533h34.057     c0.017,0,0.034,0.003,0.051,0.003h51.2c0.017,0,0.034-0.002,0.051-0.003h170.616c4.713,0,8.533-3.82,8.533-8.533V237.815     l47.243,24.745c2.851,1.493,6.3,1.255,8.919-0.615l59.733-42.667C511.392,216.45,512.189,210.888,509.182,207.062z      M201.206,39.297l26.599,57.631l-19.336,9.67l-20.321-54.243L201.206,39.297z M308.838,39.311l13.043,13.043l-20.321,54.243     l-19.318-9.662L308.838,39.311z M225.412,16.069h59.196c4.773,0,9.137,2.697,11.267,6.961l0.86,1.717l-33.475,72.535     c-0.039,0.085-0.068,0.172-0.104,0.258l-8.131,17.622L213.292,24.74l0.846-1.694C216.27,18.77,220.635,16.069,225.412,16.069z      M118.493,218.537l-50.536,26.47l-48.194-34.424l83.48-106.247c4.321,4.616,7.991,12.989,10.712,24.276     c1.722,7.144,2.95,14.876,3.757,22.619c0.283,2.718,0.492,5.238,0.639,7.491c0.078,1.205,0.123,2.08,0.143,2.575V218.537z      M203.803,493.934H169.67V476.87h34.133V493.934z M220.87,493.934v-25.597c0-4.713-3.821-8.533-8.533-8.533h-51.2     c-4.713,0-8.533,3.82-8.533,8.533v25.597h-17.041v-332.8c-0.027-0.921-0.081-2.016-0.178-3.519     c-0.159-2.468-0.386-5.209-0.692-8.157c-0.876-8.445-2.215-16.902-4.13-24.867c-3.871-16.101-9.48-28.307-17.93-35.133     c0.928-0.943,2.09-1.982,3.517-3.108c9.954-7.859,28.327-16.548,56.911-25.619l22.753,60.734     c1.778,4.746,7.275,6.905,11.808,4.638l27.339-13.673l12.315,26.681c1.907,4.133,6.294,5.681,10.06,4.646     c2.26-0.619,4.297-2.168,5.442-4.648l12.31-26.671l27.321,13.664c4.533,2.267,10.03,0.107,11.808-4.638l22.753-60.735     c28.586,9.072,46.96,17.761,56.913,25.62c1.422,1.122,2.58,2.157,3.506,3.097c-3.997,3.204-7.39,7.708-10.271,13.333     c-0.184,0.357-0.369,0.712-0.548,1.078c-0.191,0.391-0.379,0.791-0.565,1.193c-0.259,0.556-0.514,1.123-0.764,1.698     c-0.131,0.301-0.262,0.601-0.391,0.907c-0.366,0.872-0.724,1.763-1.07,2.676c-0.016,0.043-0.034,0.085-0.05,0.128     c-0.393,1.04-0.772,2.108-1.141,3.2c-0.039,0.115-0.076,0.234-0.115,0.35c-0.308,0.924-0.608,1.867-0.9,2.827     c-0.086,0.283-0.171,0.569-0.256,0.856c-0.239,0.809-0.473,1.631-0.701,2.464c-0.096,0.35-0.194,0.697-0.288,1.051     c-0.222,0.838-0.438,1.69-0.65,2.551c-0.071,0.287-0.147,0.563-0.217,0.852c-1.918,7.959-3.261,16.41-4.14,24.85     c-0.307,2.946-0.534,5.685-0.695,8.152c-0.098,1.502-0.152,2.596-0.174,3.216l-0.005,62.871c0,0.134,0.021,0.263,0.027,0.396     l-0.004,269.838H220.87z M442.05,245.007l-50.513-26.458v-57.415c0.011-0.158,0.056-1.088,0.142-2.419     c0.146-2.255,0.354-4.778,0.636-7.498c0.803-7.749,2.029-15.487,3.748-22.638c0.215-0.894,0.437-1.764,0.664-2.62     c0.057-0.214,0.114-0.425,0.172-0.636c0.161-0.594,0.325-1.175,0.491-1.75c0.087-0.301,0.173-0.605,0.262-0.901     c0.147-0.492,0.298-0.968,0.448-1.445c0.218-0.688,0.44-1.362,0.666-2.02c0.064-0.186,0.127-0.374,0.192-0.558     c0.184-0.522,0.369-1.035,0.558-1.537c0.022-0.058,0.044-0.115,0.065-0.173c2.124-5.614,4.54-9.927,7.111-12.698l83.552,106.339     L442.05,245.007z" fill="#333333"/>
			<path d="M348.87,178.201h-51.2c-4.713,0-8.533,3.82-8.533,8.533v51.2c0,2.853,1.426,5.518,3.8,7.1l25.6,17.067     c2.866,1.911,6.601,1.911,9.467,0l25.6-17.067c2.374-1.583,3.8-4.247,3.8-7.1v-51.2     C357.403,182.021,353.583,178.201,348.87,178.201z M340.337,233.367l-17.067,11.378l-17.067-11.378v-38.1h34.133V233.367z" fill="#333333"/>
		</g>
	</g>
</g>
<g>
</g>
<g>
</g>
<g>
</g>
<g>
</g>
<g>
</g>
<g>
</g>
<g>
</g>
<g>
</g>
<g>
</g>
<g>
</g>
<g>
</g>
<g>
</g>
<g>
</g>
<g>
</g>
<g>
</g>
</svg>
