<?xml version="1.0" encoding="iso-8859-1"?>
<!-- Generator: Adobe Illustrator 19.0.0, SVG Export Plug-In . SVG Version: 6.00 Build 0)  -->
<svg xmlns="http://www.w3.org/2000/svg" xmlns:xlink="http://www.w3.org/1999/xlink" version="1.1" id="Capa_1" x="0px" y="0px" viewBox="0 0 58.726 58.726" style="enable-background:new 0 0 58.726 58.726;" xml:space="preserve" width="512px" height="512px">
<g>
	<g>
		<path d="M58.644,46.093c0.175-1.121,0.08-3.841-0.367-5.076c-0.961-2.656-3.57-4.425-6.511-4.425    c-0.033,0-0.067,0.001-0.101,0.001c-0.477,0.006-1.027,0.107-1.683,0.311c-1.105,0.343-2.229,0.584-3.364,0.741V7.362    c0-0.477-0.337-0.887-0.804-0.98l-30-6c-0.041-0.008-0.081,0.006-0.122,0.003c-0.052-0.005-0.103-0.025-0.157-0.02l-12,1    C3.017,1.408,2.618,1.841,2.618,2.362v50.764L0,58.362h17h2.236h13.742h16.258l-2.618-5.236v-1.764h1.343l1.832,3.907    c0.583,1.825,2.313,3.093,4.233,3.093c2.451,0,4.445-1.994,4.443-4.514l-0.285-4.149c-0.087-1.264-0.039-1.436,0.09-1.895    C58.37,47.462,58.502,46.994,58.644,46.093z M37.55,36.91c-0.668-0.2-1.409-0.307-2.203-0.317c-0.034,0-0.068-0.001-0.104-0.001    c-2.945,0-5.556,1.771-6.517,4.431c-0.446,1.237-0.54,3.954-0.364,5.069c0.142,0.901,0.272,1.37,0.368,1.712    c0.129,0.459,0.177,0.63,0.09,1.894l-0.183,2.664h-12.02V21.504l28,3.733v12.58C42.302,37.909,39.939,37.625,37.55,36.91z     M4.618,22.281l4-0.333v30.414h-4V22.281z M10.618,21.781l4-0.333v30.914H14h-3.382V21.781z M44.618,23.219l-28-3.733V2.581    l28,5.6V23.219z M14.618,19.442l-4,0.333V2.782l4-0.333V19.442z M8.618,2.948v16.994l-4,0.333V3.281L8.618,2.948z M3.236,56.362    l1-2H15l1,2H3.236z M18.236,56.362l-1-2h11.319c0.012,0.125,0.037,0.245,0.06,0.366c0.007,0.039,0.011,0.079,0.019,0.117    c0.054,0.251,0.132,0.493,0.226,0.726c0.02,0.05,0.042,0.099,0.064,0.148c0.099,0.223,0.21,0.44,0.344,0.641H18.236V56.362z     M36.694,56.362c0.059-0.089,0.106-0.187,0.158-0.282c0.035-0.064,0.074-0.124,0.107-0.19c0.098-0.198,0.185-0.404,0.254-0.62    l0.429-0.908H45l1,2H36.694z M44.618,52.362h-6.029c0.216-0.454,0.369-0.774,0.478-1h5.552v1H44.618z M56.667,45.783    c-0.123,0.783-0.231,1.17-0.318,1.48c-0.188,0.668-0.266,1.028-0.16,2.571l0.283,4.081c0,1.349-1.097,2.445-2.445,2.445    c-1.071,0-2.033-0.717-2.341-1.742l-2.453-5.258h-3.614h-7.061c-0.661-0.14-0.766,0.01-2.183,3l0,0l-0.151,0.32    c-0.04,0.085-0.077,0.163-0.12,0.252c0,0,0,0.001-0.001,0.002c-0.154,0.325-0.324,0.686-0.506,1.071l-0.223,0.473l-0.054,0.14    c-0.313,1.042-1.254,1.742-2.342,1.742c-0.168,0-0.331-0.017-0.49-0.049c-1.104-0.225-1.939-1.196-1.955-2.361l0.283-4.117    c0.105-1.542,0.027-1.902-0.16-2.57c-0.087-0.311-0.195-0.696-0.317-1.481c-0.132-0.832-0.046-3.209,0.269-4.081    c0.675-1.867,2.531-3.109,4.637-3.109c0.025,0,0.051,0.001,0.076,0.001c0.608,0.008,1.165,0.086,1.656,0.233    c0.58,0.173,1.159,0.324,1.738,0.454c0.004,0.001,0.008,0.001,0.013,0.002c1.689,0.377,3.371,0.569,5.019,0.569    c0.471,0,0.975-0.024,1.508-0.061c1.804-0.116,3.583-0.438,5.32-0.977c0.576-0.179,0.924-0.219,1.116-0.221    c0.024,0,0.049-0.001,0.073-0.001c2.102,0,3.957,1.241,4.632,3.105v0.001C56.711,42.569,56.798,44.948,56.667,45.783z" fill="#333333"/>
		<path d="M51.618,40.362c-2.206,0-4,1.794-4,4s1.794,4,4,4s4-1.794,4-4S53.824,40.362,51.618,40.362z M51.618,46.362    c-1.103,0-2-0.897-2-2s0.897-2,2-2s2,0.897,2,2S52.721,46.362,51.618,46.362z" fill="#333333"/>
		<path d="M35.499,40.362c-2.206,0-4,1.794-4,4s1.794,4,4,4s4-1.794,4-4S37.705,40.362,35.499,40.362z M35.499,46.362    c-1.103,0-2-0.897-2-2s0.897-2,2-2s2,0.897,2,2S36.602,46.362,35.499,46.362z" fill="#333333"/>
		<path d="M45.618,41.362c-0.553,0-1,0.447-1,1h-2c0-0.553-0.447-1-1-1s-1,0.447-1,1v1c0,0.553,0.447,1,1,1h4c0.553,0,1-0.447,1-1    v-1C46.618,41.809,46.171,41.362,45.618,41.362z" fill="#333333"/>
	</g>
</g>
<g>
</g>
<g>
</g>
<g>
</g>
<g>
</g>
<g>
</g>
<g>
</g>
<g>
</g>
<g>
</g>
<g>
</g>
<g>
</g>
<g>
</g>
<g>
</g>
<g>
</g>
<g>
</g>
<g>
</g>
</svg>
