<?xml version="1.0" encoding="iso-8859-1"?>
<!-- Generator: Adobe Illustrator 19.0.0, SVG Export Plug-In . SVG Version: 6.00 Build 0)  -->
<svg xmlns="http://www.w3.org/2000/svg" xmlns:xlink="http://www.w3.org/1999/xlink" version="1.1" id="Layer_1" x="0px" y="0px" viewBox="0 0 512 512" style="enable-background:new 0 0 512 512;" xml:space="preserve" width="512px" height="512px">
<g transform="translate(1 1)">
	<g>
		<g>
			<path d="M63,219.16c-17.067,10.24-23.893,24.747-19.627,38.4c5.973,18.773,30.72,29.867,58.88,27.307     c13.653,0,25.6,2.56,30.72,8.533c1.707,2.56,2.56,5.12,2.56,7.68c-1.707,15.36,6.827,29.867,23.04,37.547     c17.92,8.533,46.933,9.387,68.267-9.387l6.827-4.267c5.12-4.267,12.8-5.973,21.333-5.973c7.68,0,16.213,2.56,21.333,5.973     l6.827,4.267c12.8,11.093,27.307,15.36,40.96,15.36c10.24,0,19.627-2.56,28.16-6.827c16.213-8.533,24.747-22.187,23.04-37.547     c-0.853-2.56,0-5.12,2.56-7.68c5.12-5.973,17.067-9.387,30.72-8.533c28.16,2.56,52.907-8.533,58.88-27.307     c4.267-13.653-3.413-28.16-19.627-38.4c-5.973-3.413-10.24-8.533-10.24-12.8s3.413-9.387,10.24-12.8     c16.213-7.68,23.893-21.333,20.48-34.133c-4.267-17.92-27.307-29.867-56.32-29.013c-15.36,0.853-28.16-2.56-34.133-8.533     c-1.707-1.707-2.56-4.267-2.56-6.827c0.853-13.653-8.533-26.453-23.893-34.987c-18.773-9.387-46.933-12.8-67.413,2.56     L270.36,92.867c-4.267,2.56-9.387,4.267-15.36,4.267s-11.093-1.707-14.507-2.56l-14.507-11.947     c-19.627-15.36-48.64-11.947-66.56-2.56c-16.213,8.533-24.747,21.333-23.893,34.987c0,2.56-0.853,4.267-1.707,6.827     c-5.973,5.973-18.773,9.387-34.133,8.533c-28.16-0.853-51.2,11.093-56.32,29.013c-3.413,12.8,4.267,25.6,20.48,34.133     c5.973,3.413,10.24,8.533,10.24,12.8S69.827,214.893,63,219.16z M91.16,206.36c0-11.093-6.827-21.333-19.627-28.16     c-4.267-1.707-13.653-7.68-11.947-14.507c1.707-8.533,17.92-17.067,39.253-16.213c19.627,0.853,36.693-4.267,46.933-14.507     c5.973-5.12,8.533-11.947,7.68-19.627c-0.853-6.827,5.12-13.653,14.507-18.773c13.653-6.827,34.133-9.387,47.787,0.853     l14.507,11.947c6.827,4.267,15.36,6.827,24.747,6.827s17.92-2.56,25.6-7.68l13.653-11.093c13.653-10.24,34.987-8.533,48.64-0.853     c9.387,5.12,15.36,11.947,14.507,18.773c0,7.68,2.56,14.507,7.68,20.48c9.387,10.24,26.453,15.36,46.933,14.507     c21.333-0.853,36.693,7.68,39.253,16.213c1.707,7.68-7.68,12.8-11.947,15.36c-12.8,6.827-19.627,16.213-19.627,27.307     c0,10.24,6.827,20.48,19.627,27.307c5.12,2.56,14.507,9.387,11.947,17.92c-2.56,8.533-18.773,17.067-41.813,15.36     c-19.627-0.853-35.84,4.267-44.373,13.653c-5.973,5.973-8.533,13.653-7.68,21.333c0.853,11.947-9.387,17.92-13.653,20.48     c-13.653,6.827-34.987,6.827-49.493-6.827l-8.533-5.973c-7.68-5.12-18.773-8.533-29.867-8.533c-12.8,0-23.04,3.413-31.573,7.68     l-6.827,5.12l-0.853,0.853c-14.507,13.653-35.84,13.653-49.493,6.827c-4.267-2.56-14.507-8.533-13.653-20.48     c0.853-8.533-1.707-15.36-7.68-21.333c-8.533-9.387-24.747-14.507-44.373-13.653c-22.187,1.707-39.253-5.973-41.813-15.36     c-2.56-8.533,7.68-15.36,11.947-17.92C84.333,226.84,91.16,217.453,91.16,206.36z" fill="#333333"/>
			<path d="M255,37.4C114.2,37.4-1,113.347-1,207.213v0l0,0V311.32C6.68,401.773,119.32,472.6,255,472.6s248.32-70.827,256-162.133     V207.213C511,113.347,395.8,37.4,255,37.4z M255,54.467c131.413,0,238.933,68.267,238.933,152.747     c0,85.333-107.52,154.453-238.933,154.453c-32.853,0-64.213-4.32-92.773-12.133c-3.57-0.977-7.096-2.008-10.576-3.092     c-24.36-7.59-46.45-17.775-65.397-30.001c-2.707-1.747-5.349-3.535-7.925-5.363c-10.303-7.314-19.539-15.268-27.544-23.76     c-2.001-2.123-3.925-4.28-5.77-6.468c-0.922-1.094-1.825-2.197-2.707-3.307c-1.765-2.22-3.449-4.471-5.049-6.752     c-0.8-1.14-1.58-2.288-2.338-3.443c-2.275-3.465-4.36-6.995-6.245-10.584c-0.629-1.196-1.235-2.399-1.819-3.608     c-7.009-14.511-10.789-29.941-10.789-45.941C16.067,122.733,123.587,54.467,255,54.467z M493.933,309.613     c-6.827,80.213-114.347,145.92-238.933,145.92S22.893,389.827,16.067,310.467V268.76     c35.073,60.871,120.544,105.015,221.626,109.571c1.016,0.046,2.033,0.092,3.052,0.13c0.844,0.031,1.689,0.058,2.535,0.084     c1.255,0.039,2.512,0.07,3.772,0.096c0.681,0.014,1.361,0.03,2.043,0.041c1.964,0.03,3.931,0.05,5.905,0.05     s3.941-0.02,5.905-0.05c0.682-0.01,1.362-0.027,2.043-0.041c1.259-0.026,2.517-0.058,3.772-0.096     c0.846-0.026,1.691-0.053,2.535-0.084c1.019-0.038,2.036-0.084,3.052-0.13c101.082-4.557,186.553-48.7,221.626-109.571V309.613z" fill="#333333"/>
		</g>
	</g>
</g>
<g>
</g>
<g>
</g>
<g>
</g>
<g>
</g>
<g>
</g>
<g>
</g>
<g>
</g>
<g>
</g>
<g>
</g>
<g>
</g>
<g>
</g>
<g>
</g>
<g>
</g>
<g>
</g>
<g>
</g>
</svg>
