<?xml version="1.0" encoding="iso-8859-1"?>
<!-- Generator: Adobe Illustrator 19.0.0, SVG Export Plug-In . SVG Version: 6.00 Build 0)  -->
<svg xmlns="http://www.w3.org/2000/svg" xmlns:xlink="http://www.w3.org/1999/xlink" version="1.1" id="Layer_1" x="0px" y="0px" viewBox="0 0 512 512" style="enable-background:new 0 0 512 512;" xml:space="preserve" width="512px" height="512px">
<g transform="translate(1 1)">
	<g>
		<g>
			<path d="M281.483,184.379c-53.848,0-97.103,43.255-97.103,97.103c0,53.848,43.255,97.103,97.103,97.103     c53.848,0,97.103-43.255,97.103-97.103S335.331,184.379,281.483,184.379z M281.483,360.931c-44.138,0-79.448-35.31-79.448-79.448     c0-44.138,35.31-79.448,79.448-79.448c44.138,0,79.448,35.31,79.448,79.448C360.931,325.621,325.621,360.931,281.483,360.931z" fill="#333333"/>
			<path d="M281.483,237.345c-24.717,0-44.138,19.421-44.138,44.138c0,24.717,19.421,44.138,44.138,44.138     c24.717,0,44.138-19.421,44.138-44.138C325.621,256.766,306.2,237.345,281.483,237.345z M281.483,307.966     c-15.007,0-26.483-11.476-26.483-26.483C255,266.476,266.476,255,281.483,255c15.007,0,26.483,11.476,26.483,26.483     C307.966,296.49,296.49,307.966,281.483,307.966z" fill="#333333"/>
			<path d="M281.483,405.069c-5.297,0-8.828,3.531-8.828,8.828c0,5.297,3.531,8.828,8.828,8.828c5.297,0,8.828-3.531,8.828-8.828     C290.31,408.6,286.779,405.069,281.483,405.069z" fill="#333333"/>
			<path d="M281.483,449.207c-5.297,0-8.828,3.531-8.828,8.828c0,5.297,3.531,8.828,8.828,8.828c5.297,0,8.828-3.531,8.828-8.828     C290.31,452.738,286.779,449.207,281.483,449.207z" fill="#333333"/>
			<path d="M281.483,157.897c5.297,0,8.828-3.531,8.828-8.828s-3.531-8.828-8.828-8.828c-5.297,0-8.828,3.531-8.828,8.828     S276.186,157.897,281.483,157.897z" fill="#333333"/>
			<path d="M338.841,59.048l3.552-3.552c1.766-1.766,2.648-3.531,2.648-6.179c0-2.648-0.883-4.414-2.648-6.179     c-8.754-8.754-18.441-16.318-28.824-22.593c-0.836-0.712-1.752-1.24-2.708-1.593c-10.193-5.874-21.022-10.518-32.271-13.844     c-1.804-1.319-3.913-1.869-5.972-1.638C260.892,0.527,248.762-1,236.462-1c-39.724,0-77.683,15.89-105.931,44.138l-87.393,87.393     C14.89,158.779-1,196.738-1,236.462c0,39.724,15.89,77.683,44.138,105.931c1.766,1.766,3.531,2.648,6.179,2.648     c1.766,0,4.414-0.883,6.179-2.648l3.552-3.552C85.18,439.204,175.75,511,281.483,511C407.717,511,511,407.717,511,281.483     C511,175.75,439.204,85.18,338.841,59.048z M34.297,302.682l33.558-33.558c3.531-3.531,3.531-8.828,0-12.359     c-3.531-3.531-8.828-3.531-12.359,0l-29.308,29.308c-3.032-7.509-5.359-15.29-6.956-23.295c0.566,0.111,1.174,0.166,1.836,0.166     c1.766,0,4.414-0.883,6.179-2.648l60.028-60.028c3.531-3.531,3.531-8.828,0-12.359c-3.531-3.531-8.828-3.531-12.359,0     l-57.94,57.94c-0.213-3.103-0.322-6.233-0.322-9.388c0-35.31,14.124-68.855,38.841-93.572l87.393-87.393     c24.717-24.717,58.262-38.841,93.572-38.841c6.435,0,12.765,0.452,18.974,1.33l-62.229,62.229c-3.531,3.531-3.531,8.828,0,12.359     c1.766,1.766,3.531,2.648,6.179,2.648c1.766,0,4.414-0.883,6.179-2.648l70.082-70.082c6.089,1.875,12.023,4.191,17.781,6.936     L255,67.855c-3.531,3.531-3.531,8.828,0,12.359c1.766,1.766,3.531,2.648,6.179,2.648s4.414-0.883,6.179-2.648l41.885-41.885     c5.049,3.306,9.926,6.972,14.611,10.989l-8.828,8.828L58.145,315.028c-0.696,0.464-1.263,1.055-1.715,1.715l-7.112,7.112     C43.586,317.169,38.572,310.092,34.297,302.682z M281.483,493.345c-100.635,0-187.145-70.621-207.448-169.49L323.855,74.034     c98.869,20.303,169.49,106.814,169.49,207.448C493.345,398.007,398.007,493.345,281.483,493.345z" fill="#333333"/>
			<path d="M458.034,272.655c-5.297,0-8.828,3.531-8.828,8.828c0,5.297,3.531,8.828,8.828,8.828c5.297,0,8.828-3.531,8.828-8.828     C466.862,276.186,463.331,272.655,458.034,272.655z" fill="#333333"/>
			<path d="M413.897,272.655c-5.297,0-8.828,3.531-8.828,8.828c0,5.297,3.531,8.828,8.828,8.828c5.297,0,8.828-3.531,8.828-8.828     C422.724,276.186,419.193,272.655,413.897,272.655z" fill="#333333"/>
			<path d="M181.731,368.876c-3.531,3.531-3.531,8.828,0,12.359c3.531,3.531,8.828,3.531,12.359,0s3.531-8.828,0-12.359     C190.559,365.345,185.262,365.345,181.731,368.876z" fill="#333333"/>
			<path d="M150.834,399.772c-3.531,3.531-3.531,8.828,0,12.359c3.531,3.531,8.828,3.531,12.359,0c3.531-3.531,3.531-8.828,0-12.359     C159.662,396.241,153.483,396.241,150.834,399.772z" fill="#333333"/>
			<path d="M412.131,163.193c3.531-3.531,3.531-8.828,0-12.359c-2.648-3.531-8.828-3.531-12.359,0     c-3.531,3.531-3.531,8.828,0,12.359C403.303,166.724,408.6,166.724,412.131,163.193z" fill="#333333"/>
			<path d="M368.876,181.731c-3.531,3.531-3.531,8.828,0,12.359c3.531,3.531,8.828,3.531,12.359,0c3.531-3.531,3.531-8.828,0-12.359     C377.703,178.2,372.407,178.2,368.876,181.731z" fill="#333333"/>
			<path d="M399.772,399.772c-3.531,3.531-3.531,8.828,0,12.359c3.531,3.531,8.828,3.531,12.359,0c3.531-2.648,3.531-8.828,0-12.359     C408.6,396.241,403.303,396.241,399.772,399.772z" fill="#333333"/>
			<path d="M368.876,368.876c-3.531,3.531-3.531,8.828,0,12.359c3.531,3.531,8.828,3.531,12.359,0c3.531-3.531,3.531-8.828,0-12.359     C377.703,365.345,372.407,365.345,368.876,368.876z" fill="#333333"/>
		</g>
	</g>
</g>
<g>
</g>
<g>
</g>
<g>
</g>
<g>
</g>
<g>
</g>
<g>
</g>
<g>
</g>
<g>
</g>
<g>
</g>
<g>
</g>
<g>
</g>
<g>
</g>
<g>
</g>
<g>
</g>
<g>
</g>
</svg>
