<?xml version="1.0" encoding="iso-8859-1"?>
<!-- Generator: Adobe Illustrator 19.0.0, SVG Export Plug-In . SVG Version: 6.00 Build 0)  -->
<svg xmlns="http://www.w3.org/2000/svg" xmlns:xlink="http://www.w3.org/1999/xlink" version="1.1" id="Layer_1" x="0px" y="0px" viewBox="0 0 512 512" style="enable-background:new 0 0 512 512;" xml:space="preserve" width="512px" height="512px">
<g transform="translate(1 1)">
	<g>
		<g>
			<path d="M255-1C114.2-1-1,114.2-1,255s115.2,256,256,256s256-115.2,256-256S395.8-1,255-1z M255,493.933     c-131.413,0-238.933-107.52-238.933-238.933S123.587,16.067,255,16.067S493.933,123.587,493.933,255S386.413,493.933,255,493.933     z" fill="#333333"/>
			<path d="M127,92.867c1.707,0,3.413-0.853,4.267-2.56c26.453-19.627,58.027-33.28,90.453-38.4c4.267,0,7.68-5.12,6.827-9.387     c0-4.267-5.12-7.68-9.387-6.827c-34.987,5.973-68.267,20.48-97.28,41.813c-3.413,2.56-4.267,8.533-1.707,11.947     C121.88,92.013,124.44,92.867,127,92.867z" fill="#333333"/>
			<path d="M89.453,121.027c-3.413-2.56-9.387-1.707-11.947,1.707c-22.187,28.16-35.84,62.293-41.813,97.28     c-0.853,4.267,2.56,8.533,6.827,9.387c0.853,0,0.853,0,1.707,0c4.267,0,7.68-2.56,8.533-6.827     c5.12-32.427,18.773-63.147,38.4-89.6C93.72,129.56,92.867,123.587,89.453,121.027z" fill="#333333"/>
			<path d="M51.907,288.28c0-4.267-5.12-7.68-9.387-6.827c-4.267,0-7.68,5.12-6.827,9.387c5.973,34.987,20.48,68.267,41.813,97.28     c1.707,2.56,4.267,3.413,6.827,3.413c1.707,0,3.413-0.853,4.267-0.853c3.413-2.56,4.267-8.533,1.707-11.947     C70.68,352.28,57.027,320.707,51.907,288.28z" fill="#333333"/>
			<path d="M221.72,457.24c-32.427-5.12-63.147-18.773-89.6-38.4c-3.413-2.56-9.387-1.707-11.947,1.707     c-2.56,3.413-1.707,9.387,1.707,11.947c28.16,22.187,62.293,35.84,97.28,41.813c0.853,0,0.853,0,1.707,0     c4.267,0,7.68-3.413,7.68-7.68C229.4,462.36,225.987,458.093,221.72,457.24z" fill="#333333"/>
			<path d="M377.027,419.693c-26.453,19.627-57.173,33.28-89.6,38.4c-4.267,0-7.68,5.12-6.827,9.387     c0.853,4.267,4.267,6.827,8.533,6.827c0.853,0,0.853,0,0.853,0.853c34.987-5.973,68.267-20.48,97.28-41.813     c3.413-2.56,4.267-8.533,1.707-11.947C386.413,417.987,380.44,417.133,377.027,419.693z" fill="#333333"/>
			<path d="M466.627,281.453c-4.267-0.853-8.533,2.56-9.387,6.827c-5.12,32.427-18.773,63.147-38.4,89.6     c-2.56,3.413-1.707,9.387,1.707,11.947c1.707,0.853,3.413,1.707,5.12,1.707c2.56,0,5.12-1.707,5.973-3.413     c22.187-28.16,35.84-62.293,41.813-97.28C474.307,286.573,470.893,282.307,466.627,281.453z" fill="#333333"/>
			<path d="M457.24,222.573c0.853,4.267,4.267,6.827,8.533,6.827c0,0,0.853,0,1.707-0.853c4.267,0,7.68-5.12,6.827-9.387     c-5.973-34.987-20.48-68.267-41.813-97.28c-2.56-3.413-8.533-4.267-11.947-1.707s-4.267,8.533-1.707,11.947     C438.467,158.573,452.12,190.147,457.24,222.573z" fill="#333333"/>
			<path d="M287.427,52.76c32.427,5.12,64,18.773,90.453,38.4c1.707,0.853,3.413,1.707,5.12,1.707c2.56,0,5.12-0.853,5.973-2.56     c2.56-3.413,1.707-9.387-1.707-11.947c-28.16-21.333-62.293-35.84-97.28-41.813c-4.267-0.853-8.533,2.56-9.387,6.827     S283.16,51.907,287.427,52.76z" fill="#333333"/>
			<path d="M255,84.333c5.12,0,8.533-4.267,8.533-8.533V41.667c0-5.12-3.413-8.533-8.533-8.533s-8.533,3.413-8.533,8.533V75.8     C246.467,80.92,249.88,84.333,255,84.333z" fill="#333333"/>
			<path d="M255,425.667c-5.12,0-8.533,3.413-8.533,8.533v34.133c0,5.12,3.413,8.533,8.533,8.533s8.533-3.413,8.533-8.533V434.2     C263.533,429.08,260.12,425.667,255,425.667z" fill="#333333"/>
			<path d="M468.333,246.467H434.2c-5.12,0-8.533,3.413-8.533,8.533s3.413,8.533,8.533,8.533h34.133c5.12,0,8.533-3.413,8.533-8.533     S473.453,246.467,468.333,246.467z" fill="#333333"/>
			<path d="M75.8,263.533c4.267,0,8.533-3.413,8.533-8.533s-3.413-8.533-8.533-8.533H41.667c-5.12,0-8.533,3.413-8.533,8.533     s3.413,8.533,8.533,8.533H75.8z" fill="#333333"/>
			<path d="M400.067,97.987l-23.893,23.893c-3.413,3.413-3.413,8.533,0,11.947c1.707,1.707,3.413,2.56,5.973,2.56     c1.707,0,4.267-0.853,5.973-2.56l23.893-23.893c3.413-3.413,3.413-8.533,0-11.947S403.48,94.573,400.067,97.987z" fill="#333333"/>
			<path d="M133.827,376.173c-3.413-3.413-8.533-3.413-11.947,0l-23.893,23.893c-3.413,3.413-3.413,8.533,0,11.947     c1.707,1.707,3.413,2.56,5.973,2.56s4.267-0.853,5.973-2.56l23.893-23.893C137.24,384.707,137.24,379.587,133.827,376.173z" fill="#333333"/>
			<path d="M388.12,376.173c-3.413-3.413-8.533-3.413-11.947,0c-3.413,3.413-3.413,8.533,0,11.947l23.893,23.893     c1.707,1.707,3.413,2.56,5.973,2.56c1.707,0,4.267-0.853,5.973-2.56c3.413-3.413,3.413-8.533,0-11.947L388.12,376.173z" fill="#333333"/>
			<path d="M121.88,133.827c1.707,1.707,3.413,2.56,5.973,2.56s5.12-0.853,5.973-2.56c3.413-3.413,3.413-8.533,0-11.947     l-23.893-23.893c-3.413-3.413-8.533-3.413-11.947,0s-3.413,8.533,0,11.947L121.88,133.827z" fill="#333333"/>
			<path d="M348.867,263.533c5.12,0,8.533-3.413,8.533-8.533s-3.413-8.533-8.533-8.533h-60.821     c-3.105-11.949-12.563-21.408-24.512-24.512V127c0-5.12-3.413-8.533-8.533-8.533s-8.533,3.413-8.533,8.533v94.954     c-14.679,3.814-25.6,17.216-25.6,33.046c0,18.773,15.36,34.133,34.133,34.133c15.83,0,29.232-10.921,33.046-25.6H348.867z      M255,272.067c-9.387,0-17.067-7.68-17.067-17.067s7.68-17.067,17.067-17.067s17.067,7.68,17.067,17.067     S264.387,272.067,255,272.067z" fill="#333333"/>
		</g>
	</g>
</g>
<g>
</g>
<g>
</g>
<g>
</g>
<g>
</g>
<g>
</g>
<g>
</g>
<g>
</g>
<g>
</g>
<g>
</g>
<g>
</g>
<g>
</g>
<g>
</g>
<g>
</g>
<g>
</g>
<g>
</g>
</svg>
