<?xml version="1.0" encoding="iso-8859-1"?>
<!-- Generator: Adobe Illustrator 19.0.0, SVG Export Plug-In . SVG Version: 6.00 Build 0)  -->
<svg xmlns="http://www.w3.org/2000/svg" xmlns:xlink="http://www.w3.org/1999/xlink" version="1.1" id="Layer_1" x="0px" y="0px" viewBox="0 0 512.354 512.354" style="enable-background:new 0 0 512.354 512.354;" xml:space="preserve" width="512px" height="512px">
<g transform="translate(1 1)">
	<g>
		<g>
			<path d="M480.731,54.82c-1.707-13.653-13.653-27.307-35.84-40.107L420.998,0.207c-2.56-0.853-4.267-1.707-6.827-0.853     c-1.707,0.853-4.267,2.56-5.12,4.267L286.817,207.902c-1.261,0.665-2.371,1.687-3.206,3.078l-41.899,70.608l-38.654-21.373     l35.327-63.742c2.56-4.267,0.853-9.387-3.413-11.947l-21.744-11.997l47.344-84.43c12.8-1.707,23.893-8.533,29.867-19.627     c5.12-10.24,5.973-22.187,0.853-34.133c-5.12-11.093-13.653-20.48-25.6-27.307c-24.747-13.653-54.613-7.68-65.707,12.8     c-5.12,10.24-5.973,23.893,0,35.84l-51.194,91.296c-0.002,0.004-0.004,0.007-0.006,0.011l-35.305,63.703L67.718,185.38     c-8.533-5.12-17.92-4.267-25.6,0c-7.68,5.12-12.8,12.8-12.8,22.187v278.187c0,14.507,11.093,25.6,25.6,25.6h290.133     c14.507,0,25.6-11.093,25.6-25.6v-117.76c0-9.387-4.267-17.92-12.8-22.187L337.6,334.609     c13.742-20.139,27.996-42.201,41.584-65.602c2.56-4.267,1.707-9.387-2.56-11.947l-36.285-21.771     c15.429-7.565,39.412-22.277,59.325-46.496c1.707-2.56,36.693-51.2,51.2-99.84V88.1c0.853-0.853,2.56-10.24,19.627-11.093     c2.56,0,4.267-0.853,5.12-3.413C476.464,72.74,482.438,65.913,480.731,54.82z M294.704,228.9l40.096,23.953     c-14.249,22.841-26.851,41.916-38.261,59.051l-39.285-21.722L294.704,228.9z M215.344,60.793c1.707-2.56,1.707-5.973,0-8.533     c-5.12-8.533-5.12-17.067-1.707-23.893c6.827-12.8,26.453-15.36,42.667-5.973c8.533,4.267,14.507,11.093,17.92,18.773     c3.413,6.827,3.413,13.653,0,19.627c-4.267,6.827-11.947,11.093-21.333,11.093c-2.56,0-5.12,1.707-6.827,4.267l-48.54,87.713     l-29.756-16.417L215.344,60.793z M158.859,162.642l37.711,21.031c0.818,0.409,1.44,0.619,2.054,0.73l20.133,11.217     l-30.707,56.297l-7.184-3.973l-22.933-12.777l6.211-11.387c2.56-4.267,0.853-9.387-3.413-11.947s-9.387-0.853-11.947,3.413     l-6.201,11.369l-14.279-7.955L158.859,162.642z M353.584,367.993v117.76c0,5.12-3.413,8.533-8.533,8.533H54.918     c-5.12,0-8.533-3.413-8.533-8.533v-8.533h59.733c5.12,0,8.533-3.413,8.533-8.533s-3.413-8.533-8.533-8.533H46.384v-17.067h34.133     c5.12,0,8.533-3.413,8.533-8.533s-3.413-8.533-8.533-8.533H46.384V207.567c0-4.267,2.56-6.827,4.267-7.68     c0.853,0,2.56-0.853,4.267-0.853c0.853,0,2.56,0,4.267,0.853l52.358,28.951c0.456,0.369,0.928,0.679,1.402,0.916l27.75,15.31     c0.393,0.325,0.81,0.631,1.263,0.903c0.54,0.27,0.99,0.447,1.413,0.574l43.814,24.173c0.206,0.103,0.399,0.193,0.583,0.272     l52.012,28.76c0.382,0.345,0.773,0.639,1.165,0.835l52.861,29.242c0.282,0.22,0.578,0.432,0.899,0.624     c0.575,0.287,1.15,0.572,1.725,0.827l24.729,13.68c0.545,0.272,0.999,0.451,1.425,0.577l26.735,14.783     C351.878,362.02,353.584,364.58,353.584,367.993z M323.145,326.616l-11.455-6.334c11.563-16.848,23.494-35.671,37.908-58.589     l10.813,6.46C347.705,288.483,335.838,307.969,323.145,326.616z M463.664,60.793c-20.48,3.413-28.16,17.067-29.867,24.747     c-14.507,46.08-48.64,93.867-48.64,93.867c-22.222,27.161-50.79,40.823-61.977,45.587l-19.719-11.831L418.438,18.98l17.067,10.24     c22.187,13.653,27.307,23.893,28.16,28.16C463.664,59.087,463.664,59.94,463.664,60.793z" fill="#333333"/>
			<path d="M340.784,172.58c-6.827,1.707-11.093,8.533-9.387,15.36c1.707,6.827,8.533,11.093,15.36,9.387s11.093-8.533,9.387-15.36     C354.438,175.14,347.611,170.873,340.784,172.58z" fill="#333333"/>
			<path d="M415.878,47.993c-6.827,1.707-11.093,8.533-9.387,15.36c1.707,6.827,8.533,11.093,15.36,9.387s11.093-8.533,9.387-15.36     S421.851,46.287,415.878,47.993z" fill="#333333"/>
			<path d="M190.598,141.86c4.267,2.56,9.387,0.853,11.947-3.413s0.853-9.387-3.413-11.947c-4.267-2.56-9.387-0.853-11.947,3.413     C185.478,134.18,186.331,139.3,190.598,141.86z" fill="#333333"/>
			<path d="M219.611,88.953c4.267,2.56,9.387,0.853,11.947-3.413c2.56-4.267,0.853-9.387-3.413-11.947s-9.387-0.853-11.947,3.413     C214.491,81.273,215.344,86.393,219.611,88.953z" fill="#333333"/>
		</g>
	</g>
</g>
<g>
</g>
<g>
</g>
<g>
</g>
<g>
</g>
<g>
</g>
<g>
</g>
<g>
</g>
<g>
</g>
<g>
</g>
<g>
</g>
<g>
</g>
<g>
</g>
<g>
</g>
<g>
</g>
<g>
</g>
</svg>
