<?xml version="1.0" encoding="iso-8859-1"?>
<!-- Generator: Adobe Illustrator 19.0.0, SVG Export Plug-In . SVG Version: 6.00 Build 0)  -->
<svg xmlns="http://www.w3.org/2000/svg" xmlns:xlink="http://www.w3.org/1999/xlink" version="1.1" id="Layer_1" x="0px" y="0px" viewBox="0 0 505.584 505.584" style="enable-background:new 0 0 505.584 505.584;" xml:space="preserve" width="512px" height="512px">
<g transform="translate(1 1)">
	<g>
		<g>
			<path d="M83.153,134.389c-5.036,0-8.393,3.357-8.393,8.393s3.357,8.393,8.393,8.393s8.393-3.357,8.393-8.393     S88.189,134.389,83.153,134.389z" fill="#333333"/>
			<path d="M499.467,305.615c-2.518-1.679-5.875-1.679-8.393-0.839c-0.839,0-1.679,0.839-3.357,0.839     c1.679-5.036,3.357-10.911,5.036-15.108l1.679-3.357c9.233-19.305,11.751-40.289,9.233-63.79     c-3.357-31.895-38.61-54.557-67.987-55.397c-23.324-0.752-43.269,11.991-55.617,34.588c-10.847-5.994-23.35-9.408-36.711-9.408     h-66.308c-1.679,0-42.807-4.197-42.807-50.361c0-55.397-32.734-72.184-37.771-74.702c-30.769-16.722-55.141-6.792-64.196-1.644     c-2.368-1.625-4.91-3.048-7.584-4.234c0.285-3.001,0.436-6.082,0.436-9.23c0-22.662-7.554-41.967-20.144-51.2     c-3.357-2.518-6.715-2.518-10.072,0C84.44,9.91,78.81,23.685,76.336,37.24c-11.121-6.564-22.315-9.59-32.633-7.77     c-3.357,0-5.875,3.357-6.715,6.715c-3.008,21.053,10.826,42.772,28.222,55.518c-11.041,17.45-22.787,35.085-35.776,50.239     l-8.247,9.746c-0.911,0.47-1.789,1.129-2.665,2.005l-8.393,9.233c-15.108,17.626-14.269,43.646,1.679,59.593     c3.834,3.834,8.373,6.957,13.368,9.229c18.203,8.981,40.788,4.602,55.459-10.069l7.554-7.554     c2.518-2.518,5.875-3.357,10.072-2.518c3.357,0.839,6.715,4.197,7.554,7.554l39.449,125.902L97.979,464.065     c-49.468-14.664-80.586-31.285-84.492-33.388c-1.679-2.518-5.036-3.357-7.554-2.518c-3.357,0.839-5.875,3.357-6.715,6.715     s0.839,7.554,3.357,9.233c0.966,0.483,36.4,20.141,94.135,36.748c0.853,0.767,1.927,1.428,3.229,1.862     c19.305,5.036,40.289,10.072,60.433,13.43c0.839,0,0.839,0,1.679,0c0.507,0,1.014-0.064,1.512-0.173     c28.26,4.692,59.333,7.727,92.494,7.727c45.028,0,94.208-5.759,145.173-20.79c0.837,0.039,1.693-0.022,2.551-0.193     c16.787-5.036,35.252-11.751,53.718-19.305c1.129-0.452,2.069-1.152,2.817-2.008c12.451-5.424,24.951-11.443,37.471-18.137     c4.197-1.679,5.875-6.715,3.357-10.911c-1.679-4.197-6.715-5.875-10.911-3.357c-10.625,5.552-21.212,10.621-31.747,15.259     L418.89,342.546v-73.862c0-8.729-1.471-17.086-4.15-24.862c7.315-17.74,15.225-25.498,19.258-25.498     c5.036,0,9.233,5.036,10.072,10.911c0.839,11.751-0.839,24.341-7.554,37.77l-0.839,1.679     c-11.751,36.931-10.072,64.63,5.875,78.898c6.715,6.715,15.948,10.072,26.02,10.072c9.233,0,20.144-2.518,31.056-7.554     c3.357-1.679,5.036-4.197,5.036-7.554v-30.216C503.664,309.811,501.985,307.293,499.467,305.615z M299.704,302.257h-21.823     l5.036-25.18h11.751L299.704,302.257z M301.382,260.29h-25.18h-33.574c-5.036,0-8.393-3.357-8.393-8.393V209.93h41.967h58.754     v41.967c0,5.036-3.357,8.393-8.393,8.393H301.382z M188.91,82.349c0,0.839,0.839,0.839,0.839,0.839     c1.679,0.839,28.538,12.59,28.538,59.593c0,23.502,8.393,40.289,20.144,50.361h-12.59h-8.393l-46.164-65.469     c-9.233-13.43-16.787-28.538-24.341-44.485V81.51c-0.839-0.839-0.839-2.518-1.679-3.357     C152.818,74.795,168.766,71.438,188.91,82.349z M99.94,20.238c5.036,7.554,8.393,19.305,8.393,31.895     c0,13.43-3.357,25.18-8.393,32.734c-3.417-4.556-6.058-11.435-7.405-19.318c-0.618-4.011-0.938-8.139-0.977-12.536     C91.689,39.885,95.004,27.642,99.94,20.238z M53.776,46.257c6.715,0.839,14.269,4.197,20.984,10.072     c0,2.617,0.176,5.229,0.509,7.772c0.345,3.27,0.857,6.441,1.55,9.476c-0.987,0.997-1.662,1.752-2.241,2.933     c-0.325,0.456-0.629,0.928-0.914,1.417C62.893,68.729,55.441,57.082,53.776,46.257z M32.654,216.857     c-2.483-1.058-4.825-2.439-6.933-4.145c-0.018-0.014-0.035-0.029-0.053-0.043c-0.308-0.251-0.609-0.511-0.907-0.775     c-0.14-0.125-0.278-0.252-0.416-0.38c-0.198-0.183-0.394-0.368-0.587-0.557c-0.213-0.209-0.421-0.422-0.626-0.637     c-0.115-0.12-0.232-0.24-0.344-0.362c-0.226-0.246-0.445-0.498-0.661-0.752c-0.101-0.118-0.207-0.234-0.305-0.354     c-0.123-0.149-0.238-0.304-0.357-0.455c-7.918-10.07-7.283-24.406,1.256-33.721l4.197-5.036     c10.795,3.321,33.899,15.688,38.456,41.144C56.068,218.816,43.291,221.027,32.654,216.857z M173.264,480.894l50.059-128.276     h118.348l48.327,116.141C309.63,491.111,234.758,490.268,173.264,480.894z M441.553,450.821     c-12.59,5.036-25.18,9.233-37.771,13.43l-50.361-123.384c-0.839-3.357-4.197-5.036-7.554-5.036H216.608     c-3.357,0-6.715,1.679-7.554,5.036L156.176,477.68c-13.629-2.405-27.258-5.576-40.887-8.782     c-0.637-0.167-1.266-0.336-1.898-0.504l49.5-120.813c0.839-1.679,0.839-4.197,0-5.875l-41.128-129.259     c-3.357-9.233-10.911-15.948-20.144-18.466c-7.418-2.023-15.374-0.248-21.699,4.008c-8.161-23.718-28.698-36.485-41.71-42.458     l2.976-3.517c15.599-17.159,28.298-37.215,40.119-56.131c0.714-0.47,1.358-1.048,1.848-1.783l1.107-1.771     c1.933,3.138,4.132,5.94,6.578,8.349c1.075,1.248,2.151,2.419,3.226,3.495c2.808,2.106,6.2,2.444,8.709,1.027     c0.734-0.297,1.468-0.66,2.202-1.027c7.051-5.171,12.521-13.501,15.97-23.81c3.898,2.453,7.646,5.633,9.21,9.542l0.839,0.839     c7.554,15.948,15.948,31.895,26.02,47.003l48.682,68.826c1.679,1.679,4.197,3.357,6.715,3.357h0.839h4.197v41.967     c0,14.269,10.911,25.18,25.18,25.18h23.166l-6.379,31.895c0,2.518,0,5.036,1.679,6.715c1.679,2.518,4.197,3.357,6.715,3.357     h41.967c2.518,0,5.036-0.839,6.715-3.357c1.679-1.679,2.518-4.197,1.679-6.715l-6.379-31.895h14.772     c14.269,0,25.18-10.911,25.18-25.18v-41.111c27.839,4.704,48.682,28.604,48.682,57.898v75.541c0,1.679,0.839,2.518,0.839,3.357     L441.553,450.821z M469.251,316.526c0.839,2.518,1.679,3.357,4.197,5.036c2.518,1.679,4.197,1.679,6.715,1.679h1.679     c1.679,0,3.357-0.839,5.036-0.839v14.269c-6.715,2.518-13.429,4.197-19.305,4.197s-10.911-2.518-15.108-5.875     c-10.911-10.072-11.751-31.895-1.679-61.272l0.839-0.839c7.554-15.948,10.072-31.056,8.393-46.164     c-1.679-14.269-13.43-25.18-26.859-25.18c-9.987,0-19.149,7.439-28.304,23.112c-3.454-4.835-7.464-9.236-11.944-13.117     c6.728-13.407,20.145-27.619,41.088-26.781c21.823,0,49.521,18.466,52.039,40.289c2.518,20.144,0,37.771-7.554,54.557v0.839     l-1.679,4.197C471.769,298.9,468.412,309.811,469.251,316.526z" fill="#333333"/>
		</g>
	</g>
</g>
<g>
</g>
<g>
</g>
<g>
</g>
<g>
</g>
<g>
</g>
<g>
</g>
<g>
</g>
<g>
</g>
<g>
</g>
<g>
</g>
<g>
</g>
<g>
</g>
<g>
</g>
<g>
</g>
<g>
</g>
</svg>
