<svg xmlns="http://www.w3.org/2000/svg" viewBox="0 0 369 53" width="369px" height="53px">
<path d="M95.1,11.2h8.1L93,44.4h-9l-5.7-22.3l-5.8,22.3h-9L53.3,11.2h8.5L68,36.4l6.1-25.3H83l6,25.2L95.1,11.2z"/>
<path d="M108.2,40.1c-3.2-3.2-4.9-7.3-4.9-12.4c0-5.1,1.6-9.2,4.9-12.4c3.3-3.1,7.4-4.7,12.2-4.7s8.9,1.6,12.2,4.7
	c3.3,3.1,4.9,7.2,4.9,12.4c0,5.1-1.6,9.3-5,12.4c-3.3,3.2-7.4,4.7-12.3,4.7C115.5,44.9,111.5,43.3,108.2,40.1z M120.4,37.7
	c2.4,0,4.4-0.9,6.1-2.6c1.7-1.7,2.5-4.2,2.5-7.4s-0.8-5.6-2.5-7.3c-1.7-1.7-3.7-2.6-6.1-2.6c-2.4,0-4.4,0.9-6,2.6
	c-1.6,1.7-2.5,4.2-2.5,7.4c0,3.2,0.8,5.7,2.5,7.4C116,36.9,118,37.7,120.4,37.7z"/>
<path d="M143.5,40.1c-3.2-3.2-4.9-7.3-4.9-12.4c0-5.1,1.6-9.2,4.9-12.4c3.3-3.1,7.4-4.7,12.2-4.7s8.9,1.6,12.2,4.7
	c3.3,3.1,4.9,7.2,4.9,12.4c0,5.1-1.6,9.3-5,12.4c-3.3,3.2-7.4,4.7-12.3,4.7C150.8,44.9,146.7,43.3,143.5,40.1z M155.7,37.7
	c2.4,0,4.4-0.9,6.1-2.6c1.7-1.7,2.5-4.2,2.5-7.4s-0.8-5.6-2.5-7.3c-1.7-1.7-3.7-2.6-6.1-2.6c-2.4,0-4.4,0.9-6,2.6
	c-1.6,1.7-2.5,4.2-2.5,7.4c0,3.2,0.8,5.7,2.5,7.4C151.3,36.9,153.3,37.7,155.7,37.7z"/>
<path d="M179.4,40.1c-3-3.2-4.5-7.3-4.5-12.3c0-5,1.5-9.1,4.4-12.3c3-3.2,6.7-4.8,11.3-4.8c4.6,0,8,1.9,10.4,5.6V0h8.4v44.4H201
	v-5.6c-2.5,4-6,6.1-10.5,6.1S182.3,43.3,179.4,40.1z M198.4,34.9c1.8-1.7,2.6-4.1,2.6-7.2c0-3-0.9-5.4-2.6-7.2
	c-1.8-1.7-3.8-2.6-6.2-2.6c-2.4,0-4.4,0.9-6.2,2.6c-1.7,1.7-2.6,4.1-2.6,7.1c0,3,0.9,5.4,2.6,7.2c1.8,1.8,3.8,2.6,6.1,2.6
	C194.6,37.6,196.6,36.7,198.4,34.9z"/>
<path d="M222.5,11.2v5c2.1-3.6,5.6-5.5,10.3-5.5c2.5,0,4.8,0.6,6.8,1.7c2,1.2,3.5,2.8,4.6,5c1.2-2.1,2.8-3.7,4.8-4.9
	c2-1.2,4.3-1.8,6.8-1.8c4,0,7.2,1.2,9.6,3.7c2.4,2.5,3.6,6,3.6,10.4v19.6h-8.4V26c0-2.6-0.7-4.6-2-6s-3.1-2.1-5.4-2.1
	c-2.3,0-4.1,0.7-5.4,2.1s-2,3.4-2,6v18.4h-8.4V26c0-2.6-0.7-4.6-2-6c-1.3-1.4-3.1-2.1-5.4-2.1c-2.3,0-4.1,0.7-5.4,2.1s-2,3.4-2,6
	v18.4H214V11.2H222.5z"/>
<path d="M277.4,40.1c-3-3.2-4.5-7.3-4.5-12.3c0-5,1.5-9.1,4.4-12.3c3-3.2,6.7-4.8,11.3-4.8c4.6,0,8,1.9,10.4,5.6v-5.2h8.4v33.2h-8.4
	v-5.6c-2.5,4-6,6.1-10.5,6.1C284.1,44.9,280.4,43.3,277.4,40.1z M296.4,34.9c1.8-1.7,2.6-4.1,2.6-7.2c0-3-0.9-5.4-2.6-7.2
	c-1.8-1.7-3.8-2.6-6.2-2.6c-2.4,0-4.4,0.9-6.2,2.6c-1.7,1.7-2.6,4.1-2.6,7.1c0,3,0.9,5.4,2.6,7.2c1.8,1.8,3.8,2.6,6.2,2.6
	S294.7,36.7,296.4,34.9z"/>
<path d="M321.5,11.2V17c2.2-4.2,5.5-6.4,9.7-6.4v8.6h-2.1c-2.5,0-4.4,0.6-5.7,1.9c-1.3,1.3-1.9,3.4-1.9,6.5v16.7h-8.5V11.2H321.5z"
	/>
<path d="M350.7,37.3h4v7.1h-5.3c-3.4,0-6-0.8-7.9-2.3c-1.8-1.6-2.8-4.1-2.8-7.7V18.1h-3.5v-6.9h3.5V2.9h8.5v8.2h7.4v6.9h-7.4v16.3
	c0,1.1,0.3,1.9,0.8,2.3C348.6,37.1,349.5,37.3,350.7,37.3z"/>
<circle fill="none" stroke="#000000" stroke-width="3" stroke-miterlimit="10" cx="24.2" cy="28.5" r="22.7"/>
<polyline points="10,39.8 23.9,11.1 39,39.8 "/>
<rect x="22.5" y="39.6" width="2.9" height="6.3"/>
<g>
	<path d="M368.2,39.6c0,1.4-0.5,2.5-1.4,3.4c-0.9,0.9-2.1,1.4-3.4,1.4s-2.5-0.5-3.4-1.4c-0.9-0.9-1.4-2.1-1.4-3.4
		c0-1.4,0.5-2.5,1.4-3.4c0.9-0.9,2-1.4,3.4-1.4s2.5,0.5,3.4,1.4C367.7,37.1,368.2,38.3,368.2,39.6z"/>
</g>
</svg>