<?xml version="1.0" encoding="utf-8"?>
<!-- Generator: Adobe Illustrator 21.0.0, SVG Export Plug-In . SVG Version: 6.00 Build 0)  -->
<svg version="1.1" id="bestsellers" xmlns="http://www.w3.org/2000/svg" xmlns:xlink="http://www.w3.org/1999/xlink" x="0px"
	 y="0px" viewBox="0 0 1000 164" style="enable-background:new 0 0 1000 164;" xml:space="preserve" fill="#80BD35">
<path id="f-11" d="M11.3,156V13.2h52.5c9.9,0,18.3,0.9,25.2,2.7c6.9,1.8,12.6,4.4,17,7.7
	c4.4,3.3,7.6,7.4,9.6,12.2c2,4.8,3,10.1,3,16c0,3.2-0.5,6.3-1.4,9.3c-0.9,3-2.4,5.8-4.3,8.4c-2,2.6-4.5,5-7.5,7.1
	c-3.1,2.1-6.8,4-11.1,5.5c9.4,2.3,16.4,6,20.9,11.1c4.5,5.1,6.8,11.7,6.8,19.7c0,6.1-1.2,11.7-3.5,17c-2.4,5.2-5.8,9.8-10.3,13.7
	c-4.5,3.9-10.1,6.9-16.8,9.1c-6.7,2.2-14.3,3.3-22.8,3.3H11.3z M44.5,73.3h17.2c3.7,0,7-0.3,9.9-0.8c2.9-0.5,5.4-1.4,7.5-2.7
	c2.1-1.3,3.6-3.1,4.7-5.4c1.1-2.3,1.6-5.2,1.6-8.6c0-3.4-0.4-6.2-1.3-8.5c-0.9-2.3-2.2-4.1-3.9-5.4c-1.8-1.4-4-2.4-6.7-2.9
	c-2.7-0.6-5.9-0.9-9.7-0.9H44.5V73.3z M44.5,95.4V131h23.3c4.4,0,8-0.6,10.7-1.7c2.8-1.1,4.9-2.5,6.5-4.3c1.6-1.8,2.6-3.8,3.2-6
	c0.6-2.2,0.9-4.5,0.9-6.8c0-2.6-0.3-5-1-7.1c-0.7-2.1-1.9-3.9-3.5-5.3c-1.7-1.4-3.9-2.5-6.6-3.3c-2.7-0.8-6.2-1.2-10.4-1.2H44.5z"/>
<path id="f-10" d="M183.4,52.8c6.7,0,12.9,1,18.5,3.1c5.6,2.1,10.4,5.1,14.4,9.1c4,4,7.2,8.9,9.4,14.7
	c2.3,5.8,3.4,12.3,3.4,19.6c0,2.3-0.1,4.1-0.3,5.6c-0.2,1.4-0.6,2.6-1.1,3.4c-0.5,0.8-1.2,1.4-2.1,1.8c-0.9,0.3-2,0.5-3.4,0.5h-58.6
	c1,8.5,3.6,14.7,7.7,18.5c4.2,3.8,9.6,5.7,16.2,5.7c3.5,0,6.6-0.4,9.1-1.3c2.5-0.8,4.8-1.8,6.8-2.8c2-1,3.8-2,5.5-2.8
	c1.7-0.8,3.4-1.3,5.2-1.3c2.4,0,4.2,0.9,5.5,2.6l8.8,10.9c-3.1,3.6-6.5,6.5-10.1,8.8s-7.4,4-11.2,5.3c-3.8,1.3-7.6,2.2-11.5,2.6
	c-3.8,0.5-7.5,0.7-10.9,0.7c-7.1,0-13.8-1.2-20-3.5c-6.2-2.3-11.7-5.8-16.4-10.3c-4.7-4.6-8.4-10.3-11.1-17.1
	c-2.7-6.8-4.1-14.7-4.1-23.7c0-6.8,1.2-13.2,3.5-19.3c2.3-6.1,5.6-11.4,10-16c4.3-4.6,9.6-8.2,15.8-10.9
	C168.7,54.1,175.7,52.8,183.4,52.8z M184,73.8c-5.8,0-10.4,1.7-13.6,4.9c-3.3,3.3-5.4,8.1-6.5,14.3h37.9c0-2.4-0.3-4.8-0.9-7.1
	c-0.6-2.3-1.6-4.3-3-6.1c-1.4-1.8-3.3-3.2-5.5-4.4C190.1,74.3,187.3,73.8,184,73.8z"/>
<path id="f-9" d="M308.7,76.6c-0.8,1.2-1.6,2.1-2.5,2.6c-0.9,0.5-2,0.8-3.4,0.8c-1.4,0-2.9-0.3-4.3-0.9
	c-1.4-0.6-3-1.3-4.7-2c-1.7-0.7-3.5-1.4-5.6-2c-2.1-0.6-4.5-0.9-7.2-0.9c-3.9,0-6.8,0.7-8.9,2.2s-3.1,3.5-3.1,6.1
	c0,1.9,0.7,3.5,2,4.7c1.3,1.2,3.1,2.3,5.3,3.3c2.2,0.9,4.7,1.8,7.5,2.7c2.8,0.8,5.7,1.8,8.6,2.8c2.9,1,5.8,2.3,8.6,3.7
	c2.8,1.4,5.3,3.1,7.5,5.2c2.2,2.1,4,4.6,5.3,7.5c1.3,2.9,2,6.5,2,10.6c0,5-0.9,9.7-2.7,13.9c-1.8,4.2-4.6,7.9-8.2,11
	c-3.6,3.1-8.1,5.5-13.4,7.2c-5.3,1.7-11.5,2.5-18.4,2.5c-3.5,0-6.9-0.3-10.4-1s-6.8-1.5-10-2.6c-3.2-1.1-6.2-2.4-9-4
	c-2.7-1.5-5.1-3.2-7.1-4.9l7.1-11.2c0.8-1.3,1.9-2.3,3-3.1c1.2-0.8,2.7-1.1,4.6-1.1c1.8,0,3.3,0.4,4.8,1.2c1.4,0.8,2.9,1.6,4.6,2.5
	c1.6,0.9,3.5,1.8,5.7,2.5c2.2,0.8,4.9,1.2,8.3,1.2c2.4,0,4.3-0.2,6-0.7c1.6-0.5,2.9-1.2,3.9-2c1-0.8,1.7-1.8,2.2-2.8
	c0.5-1,0.7-2.1,0.7-3.2c0-2-0.7-3.7-2.1-5c-1.4-1.3-3.2-2.4-5.4-3.4c-2.2-0.9-4.8-1.8-7.6-2.6c-2.8-0.8-5.7-1.7-8.7-2.8
	c-2.9-1-5.8-2.3-8.7-3.8c-2.8-1.5-5.4-3.3-7.6-5.6c-2.2-2.3-4-5-5.4-8.3c-1.4-3.3-2.1-7.2-2.1-11.9c0-4.3,0.8-8.4,2.5-12.3
	c1.7-3.9,4.2-7.3,7.5-10.2s7.5-5.3,12.5-7c5-1.7,10.9-2.6,17.6-2.6c3.7,0,7.2,0.3,10.6,1c3.4,0.7,6.6,1.6,9.7,2.7
	c3,1.2,5.7,2.6,8.2,4.2c2.5,1.6,4.7,3.3,6.6,5.2L308.7,76.6z"/>
<path id="f-8" d="M368.5,157.6c-4.8,0-9.1-0.7-12.8-2.1c-3.7-1.4-6.8-3.4-9.3-6c-2.5-2.6-4.4-5.7-5.7-9.4
	c-1.3-3.7-2-7.7-2-12.3V75.3H330c-1.6,0-2.9-0.5-4-1.5c-1.1-1-1.7-2.5-1.7-4.5V57.5l16.2-3.1l6-24.8c0.8-3.1,3-4.7,6.7-4.7H369v29.7
	h24.7v20.8H369v50.5c0,2.4,0.6,4.3,1.7,5.8c1.1,1.5,2.8,2.3,4.9,2.3c1.1,0,2-0.1,2.8-0.3c0.8-0.2,1.4-0.5,2-0.8
	c0.6-0.3,1.1-0.6,1.6-0.8c0.5-0.2,1.1-0.3,1.7-0.3c0.9,0,1.6,0.2,2.2,0.6c0.6,0.4,1.1,1.1,1.7,2l9.2,14.4c-3.9,2.9-8.3,5.1-13.2,6.6
	C378.7,156.8,373.7,157.6,368.5,157.6z"/>
<path id="f-7" d="M490.8,42.2c-1,1.6-2,2.7-3.1,3.5s-2.5,1.2-4.2,1.2c-1.5,0-3.1-0.5-4.9-1.4
	c-1.7-0.9-3.7-2-5.9-3.2c-2.2-1.2-4.7-2.2-7.5-3.2c-2.8-0.9-6-1.4-9.6-1.4c-6.2,0-10.8,1.3-13.9,4s-4.6,6.2-4.6,10.7
	c0,2.9,0.9,5.3,2.7,7.2c1.8,1.9,4.2,3.5,7.2,4.9c3,1.4,6.4,2.6,10.2,3.8c3.8,1.1,7.7,2.4,11.7,3.8c4,1.4,7.9,3.1,11.7,4.9
	c3.8,1.9,7.2,4.3,10.2,7.3c3,2.9,5.4,6.5,7.2,10.7c1.8,4.2,2.7,9.3,2.7,15.2c0,6.6-1.1,12.8-3.4,18.5c-2.3,5.8-5.6,10.8-9.9,15
	c-4.3,4.3-9.7,7.6-16.1,10.1c-6.4,2.4-13.6,3.7-21.7,3.7c-4.4,0-9-0.5-13.6-1.4c-4.6-0.9-9.1-2.2-13.4-3.9
	c-4.3-1.7-8.4-3.6-12.2-5.9c-3.8-2.3-7.1-4.8-9.9-7.6l9.8-15.5c0.7-1.2,1.7-2.1,3-2.8c1.3-0.7,2.7-1.1,4.2-1.1c2,0,3.9,0.6,5.9,1.9
	c2,1.2,4.2,2.6,6.8,4.1c2.5,1.5,5.4,2.9,8.7,4.1c3.3,1.2,7.1,1.9,11.6,1.9c6,0,10.7-1.3,14-4s5-6.8,5-12.6c0-3.3-0.9-6-2.7-8.1
	c-1.8-2.1-4.2-3.8-7.2-5.2c-3-1.4-6.4-2.6-10.1-3.6c-3.8-1-7.7-2.2-11.7-3.5c-4-1.3-7.9-2.8-11.7-4.7c-3.8-1.9-7.2-4.3-10.1-7.4
	c-3-3-5.4-6.8-7.2-11.4c-1.8-4.5-2.7-10.1-2.7-16.8c0-5.4,1.1-10.6,3.2-15.7c2.2-5.1,5.3-9.6,9.5-13.6c4.2-4,9.3-7.2,15.4-9.6
	c6.1-2.4,13-3.6,20.9-3.6c4.4,0,8.6,0.3,12.8,1c4.1,0.7,8.1,1.7,11.8,3c3.7,1.3,7.2,2.9,10.4,4.8c3.2,1.9,6.1,4,8.7,6.3L490.8,42.2z
	"/>
<path id="f-6" d="M560.9,52.8c6.7,0,12.9,1,18.5,3.1c5.6,2.1,10.4,5.1,14.4,9.1c4,4,7.2,8.9,9.4,14.7
	c2.3,5.8,3.4,12.3,3.4,19.6c0,2.3-0.1,4.1-0.3,5.6c-0.2,1.4-0.6,2.6-1.1,3.4c-0.5,0.8-1.2,1.4-2.1,1.8c-0.9,0.3-2,0.5-3.4,0.5h-58.6
	c1,8.5,3.6,14.7,7.7,18.5c4.2,3.8,9.6,5.7,16.2,5.7c3.5,0,6.6-0.4,9.1-1.3c2.5-0.8,4.8-1.8,6.8-2.8c2-1,3.8-2,5.5-2.8
	c1.7-0.8,3.4-1.3,5.2-1.3c2.4,0,4.2,0.9,5.5,2.6l8.8,10.9c-3.1,3.6-6.5,6.5-10.1,8.8s-7.3,4-11.2,5.3s-7.6,2.2-11.5,2.6
	c-3.8,0.5-7.5,0.7-10.9,0.7c-7.1,0-13.8-1.2-20-3.5s-11.7-5.8-16.4-10.3c-4.7-4.6-8.4-10.3-11.1-17.1c-2.7-6.8-4.1-14.7-4.1-23.7
	c0-6.8,1.2-13.2,3.5-19.3c2.3-6.1,5.7-11.4,10-16c4.3-4.6,9.6-8.2,15.8-10.9C546.2,54.1,553.1,52.8,560.9,52.8z M561.5,73.8
	c-5.8,0-10.4,1.7-13.6,4.9c-3.3,3.3-5.4,8.1-6.5,14.3h37.9c0-2.4-0.3-4.8-0.9-7.1c-0.6-2.3-1.6-4.3-3-6.1c-1.4-1.8-3.3-3.2-5.5-4.4
	C567.6,74.3,564.8,73.8,561.5,73.8z"/>
<path id="f-5" d="M655.4,9.3V156H625V9.3H655.4z"/>
<path id="f-4" d="M711.3,9.3V156h-30.4V9.3H711.3z"/>
<path id="f-3" d="M779.3,52.8c6.7,0,12.9,1,18.5,3.1c5.6,2.1,10.4,5.1,14.4,9.1c4,4,7.2,8.9,9.4,14.7
	c2.3,5.8,3.4,12.3,3.4,19.6c0,2.3-0.1,4.1-0.3,5.6c-0.2,1.4-0.6,2.6-1.1,3.4c-0.5,0.8-1.2,1.4-2.1,1.8c-0.9,0.3-2,0.5-3.4,0.5h-58.6
	c1,8.5,3.6,14.7,7.7,18.5c4.2,3.8,9.6,5.7,16.2,5.7c3.5,0,6.6-0.4,9.1-1.3c2.5-0.8,4.8-1.8,6.8-2.8c2-1,3.8-2,5.5-2.8
	c1.7-0.8,3.4-1.3,5.2-1.3c2.4,0,4.2,0.9,5.5,2.6l8.8,10.9c-3.1,3.6-6.5,6.5-10.1,8.8s-7.3,4-11.2,5.3s-7.6,2.2-11.5,2.6
	c-3.8,0.5-7.5,0.7-10.9,0.7c-7.1,0-13.8-1.2-20-3.5s-11.7-5.8-16.4-10.3c-4.7-4.6-8.4-10.3-11.1-17.1c-2.7-6.8-4.1-14.7-4.1-23.7
	c0-6.8,1.2-13.2,3.5-19.3c2.3-6.1,5.7-11.4,10-16c4.3-4.6,9.6-8.2,15.8-10.9C764.5,54.1,771.5,52.8,779.3,52.8z M779.8,73.8
	c-5.8,0-10.4,1.7-13.6,4.9c-3.3,3.3-5.4,8.1-6.5,14.3h37.9c0-2.4-0.3-4.8-0.9-7.1c-0.6-2.3-1.6-4.3-3-6.1c-1.4-1.8-3.3-3.2-5.5-4.4
	C785.9,74.3,783.1,73.8,779.8,73.8z"/>
<path id="f-2" d="M842.4,156V54.4h18c1.5,0,2.8,0.1,3.8,0.4c1,0.3,1.9,0.7,2.5,1.2c0.7,0.6,1.2,1.3,1.6,2.2
	c0.4,0.9,0.7,2,0.9,3.3l1.7,9.5c3.7-5.7,7.9-10.3,12.5-13.6c4.6-3.3,9.7-5,15.2-5c4.6,0,8.4,1.1,11.2,3.3l-3.9,22.3
	c-0.3,1.4-0.8,2.3-1.6,2.9c-0.8,0.6-1.8,0.8-3.1,0.8c-1.1,0-2.4-0.1-3.9-0.4s-3.4-0.4-5.7-0.4c-8,0-14.2,4.2-18.8,12.7V156H842.4z"
	/>
<path id="f-1" d="M985.4,76.6c-0.8,1.2-1.6,2.1-2.5,2.6c-0.9,0.5-2,0.8-3.4,0.8c-1.4,0-2.9-0.3-4.3-0.9
	c-1.4-0.6-3-1.3-4.7-2c-1.7-0.7-3.5-1.4-5.6-2c-2.1-0.6-4.5-0.9-7.2-0.9c-3.9,0-6.8,0.7-8.9,2.2c-2.1,1.5-3.1,3.5-3.1,6.1
	c0,1.9,0.7,3.5,2,4.7c1.3,1.2,3.1,2.3,5.3,3.3c2.2,0.9,4.7,1.8,7.5,2.7c2.8,0.8,5.7,1.8,8.6,2.8c2.9,1,5.8,2.3,8.6,3.7
	c2.8,1.4,5.3,3.1,7.5,5.2c2.2,2.1,4,4.6,5.3,7.5c1.3,2.9,2,6.5,2,10.6c0,5-0.9,9.7-2.7,13.9c-1.8,4.2-4.6,7.9-8.2,11
	c-3.6,3.1-8.1,5.5-13.4,7.2c-5.3,1.7-11.5,2.5-18.4,2.5c-3.5,0-6.9-0.3-10.4-1s-6.8-1.5-10-2.6c-3.2-1.1-6.2-2.4-9-4
	c-2.7-1.5-5.1-3.2-7.1-4.9l7.1-11.2c0.8-1.3,1.9-2.3,3-3.1c1.2-0.8,2.7-1.1,4.6-1.1c1.8,0,3.3,0.4,4.8,1.2c1.4,0.8,2.9,1.6,4.6,2.5
	c1.6,0.9,3.5,1.8,5.7,2.5c2.2,0.8,4.9,1.2,8.3,1.2c2.4,0,4.3-0.2,6-0.7c1.6-0.5,2.9-1.2,3.9-2c1-0.8,1.7-1.8,2.2-2.8
	c0.5-1,0.7-2.1,0.7-3.2c0-2-0.7-3.7-2.1-5c-1.4-1.3-3.2-2.4-5.4-3.4c-2.2-0.9-4.8-1.8-7.6-2.6c-2.8-0.8-5.7-1.7-8.7-2.8
	c-2.9-1-5.8-2.3-8.7-3.8c-2.8-1.5-5.4-3.3-7.6-5.6c-2.2-2.3-4-5-5.4-8.3c-1.4-3.3-2.1-7.2-2.1-11.9c0-4.3,0.8-8.4,2.5-12.3
	c1.7-3.9,4.2-7.3,7.5-10.2s7.5-5.3,12.5-7c5-1.7,10.9-2.6,17.6-2.6c3.7,0,7.2,0.3,10.6,1c3.4,0.7,6.6,1.6,9.7,2.7
	c3,1.2,5.7,2.6,8.2,4.2c2.5,1.6,4.7,3.3,6.6,5.2L985.4,76.6z"/>
</svg>
